<!-- SVG Icon for Workspace Manager -->
<svg xmlns="http://www.w3.org/2000/svg" width="64" height="64" viewBox="0 0 64 64">
  <defs>
    <linearGradient id="gradient" x1="0%" y1="0%" x2="100%" y2="100%">
      <stop offset="0%" style="stop-color:#2196F3;stop-opacity:1" />
      <stop offset="100%" style="stop-color:#1976D2;stop-opacity:1" />
    </linearGradient>
  </defs>
  <rect width="64" height="64" rx="8" fill="url(#gradient)"/>
  <!-- Workspace grid icon -->
  <g fill="white" opacity="0.9">
    <!-- Top row -->
    <rect x="12" y="12" width="12" height="12" rx="2"/>
    <rect x="26" y="12" width="12" height="12" rx="2"/>
    <rect x="40" y="12" width="12" height="12" rx="2"/>
    <!-- Middle row -->
    <rect x="12" y="26" width="12" height="12" rx="2"/>
    <rect x="26" y="26" width="12" height="12" rx="2" fill="#FFA726"/>
    <rect x="40" y="26" width="12" height="12" rx="2"/>
    <!-- Bottom row -->
    <rect x="12" y="40" width="12" height="12" rx="2"/>
    <rect x="26" y="40" width="12" height="12" rx="2"/>
    <rect x="40" y="40" width="12" height="12" rx="2"/>
  </g>
  <!-- Connection lines -->
  <g stroke="white" stroke-width="1" opacity="0.6" fill="none">
    <line x1="24" y1="18" x2="26" y2="18"/>
    <line x1="38" y1="18" x2="40" y2="18"/>
    <line x1="18" y1="24" x2="18" y2="26"/>
    <line x1="32" y1="24" x2="32" y2="26"/>
    <line x1="46" y1="24" x2="46" y2="26"/>
  </g>
</svg>
